<svg xmlns="http://www.w3.org/2000/svg" viewBox="0 0 640 360">
  <defs>
    <linearGradient id="bg4" x1="0%" y1="0%" x2="100%" y2="100%">
      <stop offset="0%" stop-color="#0f172a"/>
      <stop offset="100%" stop-color="#1b1530"/>
    </linearGradient>
  </defs>
  <rect width="640" height="360" fill="url(#bg4)"/>
  <!-- Blog post input -->
  <rect x="100" y="120" width="140" height="120" rx="12" fill="#1e293b" stroke="#a855f7" stroke-width="1"/>
  <rect x="120" y="145" width="100" height="6" rx="3" fill="#334155"/><rect x="120" y="160" width="80" height="6" rx="3" fill="#334155"/>
  <rect x="120" y="175" width="90" height="6" rx="3" fill="#334155"/><rect x="120" y="190" width="70" height="6" rx="3" fill="#334155"/>
  <text x="170" y="225" text-anchor="middle" font-family="sans-serif" font-size="10" fill="#a855f7">Blog Post</text>
  <!-- AI engine center -->
  <circle cx="320" cy="180" r="36" fill="#1e293b" stroke="#22d3ee" stroke-width="1.5"/>
  <text x="320" y="176" text-anchor="middle" font-family="sans-serif" font-size="11" fill="#22d3ee">AI</text>
  <text x="320" y="192" text-anchor="middle" font-family="sans-serif" font-size="9" fill="#22d3ee" opacity="0.7">Engine</text>
  <line x1="240" y1="180" x2="284" y2="180" stroke="#a855f7" stroke-width="1.5" stroke-dasharray="4,4"/>
  <!-- Outputs -->
  <line x1="356" y1="165" x2="410" y2="130" stroke="#22d3ee" stroke-width="1.5" stroke-dasharray="4,4"/>
  <line x1="356" y1="180" x2="410" y2="180" stroke="#3b82f6" stroke-width="1.5" stroke-dasharray="4,4"/>
  <line x1="356" y1="195" x2="410" y2="230" stroke="#a855f7" stroke-width="1.5" stroke-dasharray="4,4"/>
  <rect x="410" y="110" width="120" height="36" rx="8" fill="#1e293b" stroke="#22d3ee" stroke-width="1"/>
  <text x="470" y="133" text-anchor="middle" font-family="sans-serif" font-size="10" fill="#22d3ee">Social Posts</text>
  <rect x="410" y="162" width="120" height="36" rx="8" fill="#1e293b" stroke="#3b82f6" stroke-width="1"/>
  <text x="470" y="185" text-anchor="middle" font-family="sans-serif" font-size="10" fill="#3b82f6">Newsletter</text>
  <rect x="410" y="214" width="120" height="36" rx="8" fill="#1e293b" stroke="#a855f7" stroke-width="1"/>
  <text x="470" y="237" text-anchor="middle" font-family="sans-serif" font-size="10" fill="#a855f7">Threads</text>
</svg>
