<svg xmlns="http://www.w3.org/2000/svg" viewBox="0 0 640 360">
  <defs>
    <linearGradient id="bg2" x1="0%" y1="0%" x2="100%" y2="100%">
      <stop offset="0%" stop-color="#0f172a"/>
      <stop offset="100%" stop-color="#1a1a2e"/>
    </linearGradient>
  </defs>
  <rect width="640" height="360" fill="url(#bg2)"/>
  <rect x="160" y="60" width="200" height="240" rx="8" fill="#1e293b" stroke="#818cf8" stroke-width="1"/>
  <rect x="180" y="90" width="160" height="8" rx="4" fill="#334155"/><rect x="180" y="110" width="120" height="8" rx="4" fill="#334155"/>
  <rect x="180" y="130" width="140" height="8" rx="4" fill="#818cf8" opacity="0.3"/><rect x="180" y="150" width="100" height="8" rx="4" fill="#334155"/>
  <rect x="180" y="170" width="130" height="8" rx="4" fill="#334155"/><rect x="180" y="190" width="150" height="8" rx="4" fill="#818cf8" opacity="0.3"/>
  <rect x="400" y="100" width="120" height="160" rx="12" fill="#1e293b" stroke="#a855f7" stroke-width="1"/>
  <text x="460" y="140" text-anchor="middle" font-family="sans-serif" font-size="10" fill="#a855f7">Analysis</text>
  <rect x="420" y="155" width="80" height="6" rx="3" fill="#334155"/><rect x="420" y="170" width="60" height="6" rx="3" fill="#22c55e" opacity="0.5"/>
  <rect x="420" y="185" width="70" height="6" rx="3" fill="#334155"/><rect x="420" y="200" width="50" height="6" rx="3" fill="#ef4444" opacity="0.5"/>
  <line x1="360" y1="180" x2="400" y2="180" stroke="#a855f7" stroke-width="1.5" stroke-dasharray="4,4"/>
</svg>
